<mxfile host="app.diagrams.net" modified="2023-06-15T11:56:08.397Z" agent="Mozilla/5.0 (Macintosh; Intel Mac OS X 10_15_7) AppleWebKit/537.36 (KHTML, like Gecko) Chrome/114.0.0.0 Safari/537.36" etag="cqw2p9UCJKrkXjp8wr26" version="21.3.8" type="github">
  <diagram id="C5RBs43oDa-KdzZeNtuy" name="Page-1">
    <mxGraphModel dx="1434" dy="773" grid="1" gridSize="10" guides="1" tooltips="1" connect="1" arrows="1" fold="1" page="1" pageScale="1" pageWidth="827" pageHeight="1169" math="0" shadow="0">
      <root>
        <mxCell id="WIyWlLk6GJQsqaUBKTNV-0" />
        <mxCell id="WIyWlLk6GJQsqaUBKTNV-1" parent="WIyWlLk6GJQsqaUBKTNV-0" />
        <mxCell id="kj9RH1DjGObXgaocPHAw-4" style="edgeStyle=orthogonalEdgeStyle;rounded=0;orthogonalLoop=1;jettySize=auto;html=1;exitX=0.5;exitY=0.5;exitDx=0;exitDy=0;exitPerimeter=0;" edge="1" parent="WIyWlLk6GJQsqaUBKTNV-1" source="kj9RH1DjGObXgaocPHAw-0" target="kj9RH1DjGObXgaocPHAw-5">
          <mxGeometry relative="1" as="geometry">
            <mxPoint x="300" y="150" as="targetPoint" />
          </mxGeometry>
        </mxCell>
        <mxCell id="kj9RH1DjGObXgaocPHAw-0" value="品牌方IT" style="shape=umlActor;verticalLabelPosition=bottom;verticalAlign=top;html=1;outlineConnect=0;" vertex="1" parent="WIyWlLk6GJQsqaUBKTNV-1">
          <mxGeometry x="110" y="120" width="30" height="60" as="geometry" />
        </mxCell>
        <mxCell id="kj9RH1DjGObXgaocPHAw-18" style="edgeStyle=orthogonalEdgeStyle;rounded=0;orthogonalLoop=1;jettySize=auto;html=1;" edge="1" parent="WIyWlLk6GJQsqaUBKTNV-1" source="kj9RH1DjGObXgaocPHAw-1" target="kj9RH1DjGObXgaocPHAw-17">
          <mxGeometry relative="1" as="geometry" />
        </mxCell>
        <mxCell id="kj9RH1DjGObXgaocPHAw-1" value="创建OTB计划" style="whiteSpace=wrap;html=1;verticalAlign=middle;align=center;" vertex="1" parent="WIyWlLk6GJQsqaUBKTNV-1">
          <mxGeometry x="320" y="290" width="110" height="40" as="geometry" />
        </mxCell>
        <mxCell id="kj9RH1DjGObXgaocPHAw-14" style="edgeStyle=orthogonalEdgeStyle;rounded=0;orthogonalLoop=1;jettySize=auto;html=1;" edge="1" parent="WIyWlLk6GJQsqaUBKTNV-1" source="kj9RH1DjGObXgaocPHAw-3" target="kj9RH1DjGObXgaocPHAw-1">
          <mxGeometry relative="1" as="geometry" />
        </mxCell>
        <mxCell id="kj9RH1DjGObXgaocPHAw-15" style="edgeStyle=orthogonalEdgeStyle;rounded=0;orthogonalLoop=1;jettySize=auto;html=1;entryX=0.5;entryY=0;entryDx=0;entryDy=0;dashed=1;" edge="1" parent="WIyWlLk6GJQsqaUBKTNV-1" source="kj9RH1DjGObXgaocPHAw-3" target="kj9RH1DjGObXgaocPHAw-16">
          <mxGeometry relative="1" as="geometry">
            <mxPoint x="585" y="420" as="targetPoint" />
          </mxGeometry>
        </mxCell>
        <mxCell id="kj9RH1DjGObXgaocPHAw-3" value="品牌方商品企划负责人" style="shape=umlActor;verticalLabelPosition=bottom;verticalAlign=top;html=1;outlineConnect=0;" vertex="1" parent="WIyWlLk6GJQsqaUBKTNV-1">
          <mxGeometry x="570" y="280" width="30" height="60" as="geometry" />
        </mxCell>
        <mxCell id="kj9RH1DjGObXgaocPHAw-8" style="edgeStyle=orthogonalEdgeStyle;rounded=0;orthogonalLoop=1;jettySize=auto;html=1;exitX=1;exitY=0.5;exitDx=0;exitDy=0;" edge="1" parent="WIyWlLk6GJQsqaUBKTNV-1" source="kj9RH1DjGObXgaocPHAw-5" target="kj9RH1DjGObXgaocPHAw-7">
          <mxGeometry relative="1" as="geometry" />
        </mxCell>
        <mxCell id="kj9RH1DjGObXgaocPHAw-5" value="创建运营年&lt;br&gt;（2024.02-2025.02）" style="whiteSpace=wrap;html=1;verticalAlign=middle;align=center;" vertex="1" parent="WIyWlLk6GJQsqaUBKTNV-1">
          <mxGeometry x="270" y="130" width="140" height="40" as="geometry" />
        </mxCell>
        <mxCell id="kj9RH1DjGObXgaocPHAw-9" style="edgeStyle=orthogonalEdgeStyle;rounded=0;orthogonalLoop=1;jettySize=auto;html=1;exitX=0.5;exitY=1;exitDx=0;exitDy=0;" edge="1" parent="WIyWlLk6GJQsqaUBKTNV-1" source="kj9RH1DjGObXgaocPHAw-7" target="kj9RH1DjGObXgaocPHAw-3">
          <mxGeometry relative="1" as="geometry">
            <mxPoint x="585" y="300" as="targetPoint" />
          </mxGeometry>
        </mxCell>
        <mxCell id="kj9RH1DjGObXgaocPHAw-13" value="产生工作消息&lt;br&gt;创建OTB/创建订货会" style="edgeLabel;html=1;align=center;verticalAlign=middle;resizable=0;points=[];" vertex="1" connectable="0" parent="kj9RH1DjGObXgaocPHAw-9">
          <mxGeometry x="0.1273" relative="1" as="geometry">
            <mxPoint as="offset" />
          </mxGeometry>
        </mxCell>
        <mxCell id="kj9RH1DjGObXgaocPHAw-7" value="从流程配置&lt;br&gt;实例化流程" style="shape=process;whiteSpace=wrap;html=1;backgroundOutline=1;" vertex="1" parent="WIyWlLk6GJQsqaUBKTNV-1">
          <mxGeometry x="520" y="130" width="130" height="40" as="geometry" />
        </mxCell>
        <mxCell id="kj9RH1DjGObXgaocPHAw-53" style="edgeStyle=orthogonalEdgeStyle;rounded=0;orthogonalLoop=1;jettySize=auto;html=1;" edge="1" parent="WIyWlLk6GJQsqaUBKTNV-1" source="kj9RH1DjGObXgaocPHAw-16" target="kj9RH1DjGObXgaocPHAw-52">
          <mxGeometry relative="1" as="geometry" />
        </mxCell>
        <mxCell id="kj9RH1DjGObXgaocPHAw-16" value="创建订货会计划" style="whiteSpace=wrap;html=1;verticalAlign=middle;align=center;" vertex="1" parent="WIyWlLk6GJQsqaUBKTNV-1">
          <mxGeometry x="827" y="690" width="110" height="40" as="geometry" />
        </mxCell>
        <mxCell id="kj9RH1DjGObXgaocPHAw-20" style="edgeStyle=orthogonalEdgeStyle;rounded=0;orthogonalLoop=1;jettySize=auto;html=1;exitX=0.5;exitY=1;exitDx=0;exitDy=0;" edge="1" parent="WIyWlLk6GJQsqaUBKTNV-1" source="kj9RH1DjGObXgaocPHAw-17" target="kj9RH1DjGObXgaocPHAw-19">
          <mxGeometry relative="1" as="geometry" />
        </mxCell>
        <mxCell id="kj9RH1DjGObXgaocPHAw-21" value="产生工作消息&lt;br style=&quot;border-color: var(--border-color);&quot;&gt;进行OTB操作" style="edgeLabel;html=1;align=center;verticalAlign=middle;resizable=0;points=[];" vertex="1" connectable="0" parent="kj9RH1DjGObXgaocPHAw-20">
          <mxGeometry x="-0.1111" y="-2" relative="1" as="geometry">
            <mxPoint x="2" y="10" as="offset" />
          </mxGeometry>
        </mxCell>
        <mxCell id="kj9RH1DjGObXgaocPHAw-17" value="流程实例化&lt;br&gt;驱动流程" style="shape=process;whiteSpace=wrap;html=1;backgroundOutline=1;" vertex="1" parent="WIyWlLk6GJQsqaUBKTNV-1">
          <mxGeometry x="60" y="290" width="130" height="40" as="geometry" />
        </mxCell>
        <mxCell id="kj9RH1DjGObXgaocPHAw-24" style="edgeStyle=orthogonalEdgeStyle;rounded=0;orthogonalLoop=1;jettySize=auto;html=1;" edge="1" parent="WIyWlLk6GJQsqaUBKTNV-1" source="kj9RH1DjGObXgaocPHAw-19" target="kj9RH1DjGObXgaocPHAw-22">
          <mxGeometry relative="1" as="geometry" />
        </mxCell>
        <mxCell id="kj9RH1DjGObXgaocPHAw-19" value="品牌方商品企划" style="shape=umlActor;verticalLabelPosition=bottom;verticalAlign=top;html=1;outlineConnect=0;" vertex="1" parent="WIyWlLk6GJQsqaUBKTNV-1">
          <mxGeometry x="110" y="430" width="30" height="60" as="geometry" />
        </mxCell>
        <mxCell id="kj9RH1DjGObXgaocPHAw-26" style="edgeStyle=orthogonalEdgeStyle;rounded=0;orthogonalLoop=1;jettySize=auto;html=1;" edge="1" parent="WIyWlLk6GJQsqaUBKTNV-1" source="kj9RH1DjGObXgaocPHAw-22" target="kj9RH1DjGObXgaocPHAw-25">
          <mxGeometry relative="1" as="geometry" />
        </mxCell>
        <mxCell id="kj9RH1DjGObXgaocPHAw-22" value="制作OTB计划" style="whiteSpace=wrap;html=1;verticalAlign=middle;align=center;" vertex="1" parent="WIyWlLk6GJQsqaUBKTNV-1">
          <mxGeometry x="320" y="440" width="110" height="40" as="geometry" />
        </mxCell>
        <mxCell id="kj9RH1DjGObXgaocPHAw-28" style="edgeStyle=orthogonalEdgeStyle;rounded=0;orthogonalLoop=1;jettySize=auto;html=1;entryX=0.5;entryY=0;entryDx=0;entryDy=0;entryPerimeter=0;" edge="1" parent="WIyWlLk6GJQsqaUBKTNV-1" source="kj9RH1DjGObXgaocPHAw-25" target="kj9RH1DjGObXgaocPHAw-27">
          <mxGeometry relative="1" as="geometry" />
        </mxCell>
        <mxCell id="kj9RH1DjGObXgaocPHAw-30" value="审核/确认单" style="edgeLabel;html=1;align=center;verticalAlign=middle;resizable=0;points=[];" vertex="1" connectable="0" parent="kj9RH1DjGObXgaocPHAw-28">
          <mxGeometry x="0.05" y="-1" relative="1" as="geometry">
            <mxPoint as="offset" />
          </mxGeometry>
        </mxCell>
        <mxCell id="kj9RH1DjGObXgaocPHAw-25" value="流程实例化&lt;br&gt;驱动流程" style="shape=process;whiteSpace=wrap;html=1;backgroundOutline=1;" vertex="1" parent="WIyWlLk6GJQsqaUBKTNV-1">
          <mxGeometry x="520" y="440" width="130" height="40" as="geometry" />
        </mxCell>
        <mxCell id="kj9RH1DjGObXgaocPHAw-32" style="edgeStyle=orthogonalEdgeStyle;rounded=0;orthogonalLoop=1;jettySize=auto;html=1;" edge="1" parent="WIyWlLk6GJQsqaUBKTNV-1" source="kj9RH1DjGObXgaocPHAw-27" target="kj9RH1DjGObXgaocPHAw-31">
          <mxGeometry relative="1" as="geometry" />
        </mxCell>
        <mxCell id="kj9RH1DjGObXgaocPHAw-27" value="品牌方商品企划负责人" style="shape=umlActor;verticalLabelPosition=bottom;verticalAlign=top;html=1;outlineConnect=0;" vertex="1" parent="WIyWlLk6GJQsqaUBKTNV-1">
          <mxGeometry x="570" y="560" width="30" height="60" as="geometry" />
        </mxCell>
        <mxCell id="kj9RH1DjGObXgaocPHAw-34" style="edgeStyle=orthogonalEdgeStyle;rounded=0;orthogonalLoop=1;jettySize=auto;html=1;" edge="1" parent="WIyWlLk6GJQsqaUBKTNV-1" source="kj9RH1DjGObXgaocPHAw-31" target="kj9RH1DjGObXgaocPHAw-33">
          <mxGeometry relative="1" as="geometry" />
        </mxCell>
        <mxCell id="kj9RH1DjGObXgaocPHAw-31" value="流程实例化&lt;br&gt;驱动流程" style="shape=process;whiteSpace=wrap;html=1;backgroundOutline=1;" vertex="1" parent="WIyWlLk6GJQsqaUBKTNV-1">
          <mxGeometry x="310" y="570" width="130" height="40" as="geometry" />
        </mxCell>
        <mxCell id="kj9RH1DjGObXgaocPHAw-36" style="edgeStyle=orthogonalEdgeStyle;rounded=0;orthogonalLoop=1;jettySize=auto;html=1;exitX=0.5;exitY=1;exitDx=0;exitDy=0;entryX=0.5;entryY=0;entryDx=0;entryDy=0;dashed=1;endArrow=none;endFill=0;" edge="1" parent="WIyWlLk6GJQsqaUBKTNV-1" source="kj9RH1DjGObXgaocPHAw-33" target="kj9RH1DjGObXgaocPHAw-35">
          <mxGeometry relative="1" as="geometry" />
        </mxCell>
        <mxCell id="kj9RH1DjGObXgaocPHAw-37" value="监听/触发" style="edgeLabel;html=1;align=center;verticalAlign=middle;resizable=0;points=[];" vertex="1" connectable="0" parent="kj9RH1DjGObXgaocPHAw-36">
          <mxGeometry x="-0.225" y="1" relative="1" as="geometry">
            <mxPoint x="-1" y="9" as="offset" />
          </mxGeometry>
        </mxCell>
        <mxCell id="kj9RH1DjGObXgaocPHAw-33" value="出具OTB计划单&lt;br&gt;并进入OMS" style="whiteSpace=wrap;html=1;verticalAlign=middle;align=center;" vertex="1" parent="WIyWlLk6GJQsqaUBKTNV-1">
          <mxGeometry x="70" y="570" width="110" height="40" as="geometry" />
        </mxCell>
        <mxCell id="kj9RH1DjGObXgaocPHAw-39" style="edgeStyle=orthogonalEdgeStyle;rounded=0;orthogonalLoop=1;jettySize=auto;html=1;exitX=1;exitY=0.5;exitDx=0;exitDy=0;" edge="1" parent="WIyWlLk6GJQsqaUBKTNV-1" source="kj9RH1DjGObXgaocPHAw-35" target="kj9RH1DjGObXgaocPHAw-42">
          <mxGeometry relative="1" as="geometry">
            <mxPoint x="340" y="710" as="targetPoint" />
          </mxGeometry>
        </mxCell>
        <mxCell id="kj9RH1DjGObXgaocPHAw-35" value="SCM协调系统" style="shape=process;whiteSpace=wrap;html=1;backgroundOutline=1;" vertex="1" parent="WIyWlLk6GJQsqaUBKTNV-1">
          <mxGeometry x="60" y="690" width="130" height="40" as="geometry" />
        </mxCell>
        <mxCell id="kj9RH1DjGObXgaocPHAw-47" style="edgeStyle=orthogonalEdgeStyle;rounded=0;orthogonalLoop=1;jettySize=auto;html=1;exitX=1;exitY=0.5;exitDx=0;exitDy=0;" edge="1" parent="WIyWlLk6GJQsqaUBKTNV-1" source="kj9RH1DjGObXgaocPHAw-42" target="kj9RH1DjGObXgaocPHAw-46">
          <mxGeometry relative="1" as="geometry" />
        </mxCell>
        <mxCell id="kj9RH1DjGObXgaocPHAw-49" value="产生工作消息&lt;br&gt;开启订货会计划" style="edgeLabel;html=1;align=center;verticalAlign=middle;resizable=0;points=[];" vertex="1" connectable="0" parent="kj9RH1DjGObXgaocPHAw-47">
          <mxGeometry x="-0.18" y="1" relative="1" as="geometry">
            <mxPoint as="offset" />
          </mxGeometry>
        </mxCell>
        <mxCell id="kj9RH1DjGObXgaocPHAw-42" value="流程实例化&lt;br&gt;驱动流程" style="shape=process;whiteSpace=wrap;html=1;backgroundOutline=1;" vertex="1" parent="WIyWlLk6GJQsqaUBKTNV-1">
          <mxGeometry x="310" y="690" width="130" height="40" as="geometry" />
        </mxCell>
        <mxCell id="kj9RH1DjGObXgaocPHAw-81" style="edgeStyle=orthogonalEdgeStyle;rounded=0;orthogonalLoop=1;jettySize=auto;html=1;exitX=0;exitY=0.5;exitDx=0;exitDy=0;" edge="1" parent="WIyWlLk6GJQsqaUBKTNV-1" source="kj9RH1DjGObXgaocPHAw-44" target="kj9RH1DjGObXgaocPHAw-80">
          <mxGeometry relative="1" as="geometry" />
        </mxCell>
        <mxCell id="kj9RH1DjGObXgaocPHAw-44" value="制作业务数据&lt;br&gt;（指标、机器订单）" style="whiteSpace=wrap;html=1;verticalAlign=middle;align=center;" vertex="1" parent="WIyWlLk6GJQsqaUBKTNV-1">
          <mxGeometry x="827" y="1170" width="110" height="40" as="geometry" />
        </mxCell>
        <mxCell id="kj9RH1DjGObXgaocPHAw-50" style="edgeStyle=orthogonalEdgeStyle;rounded=0;orthogonalLoop=1;jettySize=auto;html=1;" edge="1" parent="WIyWlLk6GJQsqaUBKTNV-1" source="kj9RH1DjGObXgaocPHAw-46" target="kj9RH1DjGObXgaocPHAw-16">
          <mxGeometry relative="1" as="geometry" />
        </mxCell>
        <mxCell id="kj9RH1DjGObXgaocPHAw-64" value="填写基础信息" style="edgeLabel;html=1;align=center;verticalAlign=middle;resizable=0;points=[];" vertex="1" connectable="0" parent="kj9RH1DjGObXgaocPHAw-50">
          <mxGeometry x="0.0308" y="-1" relative="1" as="geometry">
            <mxPoint as="offset" />
          </mxGeometry>
        </mxCell>
        <mxCell id="kj9RH1DjGObXgaocPHAw-46" value="品牌方商品企划负责人" style="shape=umlActor;verticalLabelPosition=bottom;verticalAlign=top;html=1;outlineConnect=0;" vertex="1" parent="WIyWlLk6GJQsqaUBKTNV-1">
          <mxGeometry x="570" y="680" width="30" height="60" as="geometry" />
        </mxCell>
        <mxCell id="kj9RH1DjGObXgaocPHAw-61" style="edgeStyle=orthogonalEdgeStyle;rounded=0;orthogonalLoop=1;jettySize=auto;html=1;entryX=1;entryY=0.5;entryDx=0;entryDy=0;" edge="1" parent="WIyWlLk6GJQsqaUBKTNV-1" source="kj9RH1DjGObXgaocPHAw-51" target="kj9RH1DjGObXgaocPHAw-62">
          <mxGeometry relative="1" as="geometry">
            <mxPoint x="460" y="890" as="targetPoint" />
          </mxGeometry>
        </mxCell>
        <mxCell id="kj9RH1DjGObXgaocPHAw-51" value="品牌方商品企划" style="shape=umlActor;verticalLabelPosition=bottom;verticalAlign=top;html=1;outlineConnect=0;" vertex="1" parent="WIyWlLk6GJQsqaUBKTNV-1">
          <mxGeometry x="570" y="860" width="30" height="60" as="geometry" />
        </mxCell>
        <mxCell id="kj9RH1DjGObXgaocPHAw-54" value="产生工作消息&lt;br&gt;组织商品、经销商、指标资料" style="edgeStyle=orthogonalEdgeStyle;rounded=0;orthogonalLoop=1;jettySize=auto;html=1;" edge="1" parent="WIyWlLk6GJQsqaUBKTNV-1" source="kj9RH1DjGObXgaocPHAw-52" target="kj9RH1DjGObXgaocPHAw-51">
          <mxGeometry x="0.0046" relative="1" as="geometry">
            <mxPoint as="offset" />
          </mxGeometry>
        </mxCell>
        <mxCell id="kj9RH1DjGObXgaocPHAw-52" value="从流程配置&lt;br style=&quot;border-color: var(--border-color);&quot;&gt;实例化流程" style="shape=process;whiteSpace=wrap;html=1;backgroundOutline=1;" vertex="1" parent="WIyWlLk6GJQsqaUBKTNV-1">
          <mxGeometry x="817" y="870" width="130" height="40" as="geometry" />
        </mxCell>
        <mxCell id="kj9RH1DjGObXgaocPHAw-60" value="下发OTB计划数据" style="edgeStyle=orthogonalEdgeStyle;rounded=0;orthogonalLoop=1;jettySize=auto;html=1;" edge="1" parent="WIyWlLk6GJQsqaUBKTNV-1" source="kj9RH1DjGObXgaocPHAw-58" target="kj9RH1DjGObXgaocPHAw-44">
          <mxGeometry relative="1" as="geometry" />
        </mxCell>
        <mxCell id="kj9RH1DjGObXgaocPHAw-58" value="SCM协调系统" style="shape=process;whiteSpace=wrap;html=1;backgroundOutline=1;" vertex="1" parent="WIyWlLk6GJQsqaUBKTNV-1">
          <mxGeometry x="817" y="1037" width="130" height="40" as="geometry" />
        </mxCell>
        <mxCell id="kj9RH1DjGObXgaocPHAw-67" style="edgeStyle=orthogonalEdgeStyle;rounded=0;orthogonalLoop=1;jettySize=auto;html=1;" edge="1" parent="WIyWlLk6GJQsqaUBKTNV-1" source="kj9RH1DjGObXgaocPHAw-62" target="kj9RH1DjGObXgaocPHAw-66">
          <mxGeometry relative="1" as="geometry" />
        </mxCell>
        <mxCell id="kj9RH1DjGObXgaocPHAw-62" value="制作/组织基础数据&lt;br&gt;（选定经销商范围）" style="whiteSpace=wrap;html=1;verticalAlign=middle;align=center;" vertex="1" parent="WIyWlLk6GJQsqaUBKTNV-1">
          <mxGeometry x="320" y="870" width="110" height="40" as="geometry" />
        </mxCell>
        <mxCell id="kj9RH1DjGObXgaocPHAw-70" value="生产工作消息&lt;br&gt;确认订货会计划、组织买手、组织门店关系、&lt;br&gt;确立指标、制作尺码模板" style="edgeStyle=orthogonalEdgeStyle;rounded=0;orthogonalLoop=1;jettySize=auto;html=1;" edge="1" parent="WIyWlLk6GJQsqaUBKTNV-1" source="kj9RH1DjGObXgaocPHAw-66" target="kj9RH1DjGObXgaocPHAw-69">
          <mxGeometry relative="1" as="geometry">
            <mxPoint as="offset" />
          </mxGeometry>
        </mxCell>
        <mxCell id="kj9RH1DjGObXgaocPHAw-66" value="流程实例化&lt;br&gt;驱动流程" style="shape=process;whiteSpace=wrap;html=1;backgroundOutline=1;" vertex="1" parent="WIyWlLk6GJQsqaUBKTNV-1">
          <mxGeometry x="60" y="870" width="130" height="40" as="geometry" />
        </mxCell>
        <mxCell id="kj9RH1DjGObXgaocPHAw-73" style="edgeStyle=orthogonalEdgeStyle;rounded=0;orthogonalLoop=1;jettySize=auto;html=1;" edge="1" parent="WIyWlLk6GJQsqaUBKTNV-1" source="kj9RH1DjGObXgaocPHAw-69" target="kj9RH1DjGObXgaocPHAw-72">
          <mxGeometry relative="1" as="geometry" />
        </mxCell>
        <mxCell id="kj9RH1DjGObXgaocPHAw-69" value="品牌方商品企划" style="shape=umlActor;verticalLabelPosition=bottom;verticalAlign=top;html=1;outlineConnect=0;" vertex="1" parent="WIyWlLk6GJQsqaUBKTNV-1">
          <mxGeometry x="110" y="1027" width="30" height="60" as="geometry" />
        </mxCell>
        <mxCell id="kj9RH1DjGObXgaocPHAw-75" style="edgeStyle=orthogonalEdgeStyle;rounded=0;orthogonalLoop=1;jettySize=auto;html=1;" edge="1" parent="WIyWlLk6GJQsqaUBKTNV-1" source="kj9RH1DjGObXgaocPHAw-72" target="kj9RH1DjGObXgaocPHAw-74">
          <mxGeometry relative="1" as="geometry" />
        </mxCell>
        <mxCell id="kj9RH1DjGObXgaocPHAw-72" value="补充资料" style="whiteSpace=wrap;html=1;verticalAlign=middle;align=center;" vertex="1" parent="WIyWlLk6GJQsqaUBKTNV-1">
          <mxGeometry x="320" y="1037" width="110" height="40" as="geometry" />
        </mxCell>
        <mxCell id="kj9RH1DjGObXgaocPHAw-78" style="edgeStyle=orthogonalEdgeStyle;rounded=0;orthogonalLoop=1;jettySize=auto;html=1;exitX=1;exitY=0.5;exitDx=0;exitDy=0;" edge="1" parent="WIyWlLk6GJQsqaUBKTNV-1" source="kj9RH1DjGObXgaocPHAw-74" target="kj9RH1DjGObXgaocPHAw-58">
          <mxGeometry relative="1" as="geometry" />
        </mxCell>
        <mxCell id="kj9RH1DjGObXgaocPHAw-79" value="调用/触发" style="edgeLabel;html=1;align=center;verticalAlign=middle;resizable=0;points=[];" vertex="1" connectable="0" parent="kj9RH1DjGObXgaocPHAw-78">
          <mxGeometry x="-0.1737" y="3" relative="1" as="geometry">
            <mxPoint as="offset" />
          </mxGeometry>
        </mxCell>
        <mxCell id="kj9RH1DjGObXgaocPHAw-74" value="流程实例化&lt;br&gt;驱动流程" style="shape=process;whiteSpace=wrap;html=1;backgroundOutline=1;" vertex="1" parent="WIyWlLk6GJQsqaUBKTNV-1">
          <mxGeometry x="520" y="1037" width="130" height="40" as="geometry" />
        </mxCell>
        <mxCell id="kj9RH1DjGObXgaocPHAw-83" style="edgeStyle=orthogonalEdgeStyle;rounded=0;orthogonalLoop=1;jettySize=auto;html=1;exitX=0;exitY=0.5;exitDx=0;exitDy=0;" edge="1" parent="WIyWlLk6GJQsqaUBKTNV-1" source="kj9RH1DjGObXgaocPHAw-80" target="kj9RH1DjGObXgaocPHAw-82">
          <mxGeometry relative="1" as="geometry">
            <mxPoint x="380" y="1190" as="targetPoint" />
          </mxGeometry>
        </mxCell>
        <mxCell id="kj9RH1DjGObXgaocPHAw-84" value="生产工作消息&lt;br&gt;确认订货会计划" style="edgeLabel;html=1;align=center;verticalAlign=middle;resizable=0;points=[];" vertex="1" connectable="0" parent="kj9RH1DjGObXgaocPHAw-83">
          <mxGeometry x="-0.1448" y="-3" relative="1" as="geometry">
            <mxPoint as="offset" />
          </mxGeometry>
        </mxCell>
        <mxCell id="kj9RH1DjGObXgaocPHAw-80" value="流程实例化&lt;br&gt;驱动流程" style="shape=process;whiteSpace=wrap;html=1;backgroundOutline=1;" vertex="1" parent="WIyWlLk6GJQsqaUBKTNV-1">
          <mxGeometry x="520" y="1170" width="130" height="40" as="geometry" />
        </mxCell>
        <mxCell id="kj9RH1DjGObXgaocPHAw-91" style="edgeStyle=orthogonalEdgeStyle;rounded=0;orthogonalLoop=1;jettySize=auto;html=1;entryX=1;entryY=0.5;entryDx=0;entryDy=0;" edge="1" parent="WIyWlLk6GJQsqaUBKTNV-1" source="kj9RH1DjGObXgaocPHAw-82" target="kj9RH1DjGObXgaocPHAw-92">
          <mxGeometry relative="1" as="geometry">
            <mxPoint x="145.5" y="1190.5" as="targetPoint" />
          </mxGeometry>
        </mxCell>
        <mxCell id="kj9RH1DjGObXgaocPHAw-82" value="品牌方商品企划负责人" style="shape=umlActor;verticalLabelPosition=bottom;verticalAlign=top;html=1;outlineConnect=0;" vertex="1" parent="WIyWlLk6GJQsqaUBKTNV-1">
          <mxGeometry x="360" y="1160" width="30" height="60" as="geometry" />
        </mxCell>
        <mxCell id="kj9RH1DjGObXgaocPHAw-94" style="edgeStyle=orthogonalEdgeStyle;rounded=0;orthogonalLoop=1;jettySize=auto;html=1;exitX=0.5;exitY=1;exitDx=0;exitDy=0;entryX=0.5;entryY=0;entryDx=0;entryDy=0;" edge="1" parent="WIyWlLk6GJQsqaUBKTNV-1" source="kj9RH1DjGObXgaocPHAw-92" target="kj9RH1DjGObXgaocPHAw-104">
          <mxGeometry relative="1" as="geometry">
            <mxPoint x="125" y="1310" as="targetPoint" />
          </mxGeometry>
        </mxCell>
        <mxCell id="kj9RH1DjGObXgaocPHAw-92" value="流程实例化&lt;br&gt;驱动流程" style="shape=process;whiteSpace=wrap;html=1;backgroundOutline=1;" vertex="1" parent="WIyWlLk6GJQsqaUBKTNV-1">
          <mxGeometry x="60" y="1170" width="130" height="40" as="geometry" />
        </mxCell>
        <mxCell id="kj9RH1DjGObXgaocPHAw-100" style="edgeStyle=orthogonalEdgeStyle;rounded=0;orthogonalLoop=1;jettySize=auto;html=1;exitX=0.5;exitY=1;exitDx=0;exitDy=0;" edge="1" parent="WIyWlLk6GJQsqaUBKTNV-1" source="kj9RH1DjGObXgaocPHAw-102" target="kj9RH1DjGObXgaocPHAw-103">
          <mxGeometry relative="1" as="geometry" />
        </mxCell>
        <mxCell id="kj9RH1DjGObXgaocPHAw-101" value="生产工作消息&lt;br&gt;买手用户参与订货会订货" style="edgeLabel;html=1;align=center;verticalAlign=middle;resizable=0;points=[];" vertex="1" connectable="0" parent="kj9RH1DjGObXgaocPHAw-100">
          <mxGeometry x="-0.3626" y="3" relative="1" as="geometry">
            <mxPoint x="-3" y="22" as="offset" />
          </mxGeometry>
        </mxCell>
        <mxCell id="kj9RH1DjGObXgaocPHAw-102" value="流程实例化&lt;br&gt;驱动流程" style="shape=process;whiteSpace=wrap;html=1;backgroundOutline=1;" vertex="1" parent="WIyWlLk6GJQsqaUBKTNV-1">
          <mxGeometry x="1170" y="1130" width="130" height="40" as="geometry" />
        </mxCell>
        <mxCell id="kj9RH1DjGObXgaocPHAw-103" value="品牌方商品企划" style="shape=umlActor;verticalLabelPosition=bottom;verticalAlign=top;html=1;outlineConnect=0;" vertex="1" parent="WIyWlLk6GJQsqaUBKTNV-1">
          <mxGeometry x="1220" y="1270" width="30" height="60" as="geometry" />
        </mxCell>
        <mxCell id="kj9RH1DjGObXgaocPHAw-104" value="SCM协调系统" style="shape=process;whiteSpace=wrap;html=1;backgroundOutline=1;" vertex="1" parent="WIyWlLk6GJQsqaUBKTNV-1">
          <mxGeometry x="60" y="1320" width="130" height="40" as="geometry" />
        </mxCell>
        <mxCell id="kj9RH1DjGObXgaocPHAw-124" value="SCM" style="shape=umlLifeline;perimeter=lifelinePerimeter;whiteSpace=wrap;html=1;container=1;dropTarget=0;collapsible=0;recursiveResize=0;outlineConnect=0;portConstraint=eastwest;newEdgeStyle={&quot;edgeStyle&quot;:&quot;elbowEdgeStyle&quot;,&quot;elbow&quot;:&quot;vertical&quot;,&quot;curved&quot;:0,&quot;rounded&quot;:0};" vertex="1" parent="WIyWlLk6GJQsqaUBKTNV-1">
          <mxGeometry x="1460" y="15" width="100" height="765" as="geometry" />
        </mxCell>
        <mxCell id="kj9RH1DjGObXgaocPHAw-127" value="" style="html=1;points=[];perimeter=orthogonalPerimeter;outlineConnect=0;targetShapes=umlLifeline;portConstraint=eastwest;newEdgeStyle={&quot;edgeStyle&quot;:&quot;elbowEdgeStyle&quot;,&quot;elbow&quot;:&quot;vertical&quot;,&quot;curved&quot;:0,&quot;rounded&quot;:0};" vertex="1" parent="kj9RH1DjGObXgaocPHAw-124">
          <mxGeometry x="45" y="145" width="10" height="80" as="geometry" />
        </mxCell>
        <mxCell id="kj9RH1DjGObXgaocPHAw-155" value="" style="html=1;points=[];perimeter=orthogonalPerimeter;outlineConnect=0;targetShapes=umlLifeline;portConstraint=eastwest;newEdgeStyle={&quot;edgeStyle&quot;:&quot;elbowEdgeStyle&quot;,&quot;elbow&quot;:&quot;vertical&quot;,&quot;curved&quot;:0,&quot;rounded&quot;:0};" vertex="1" parent="kj9RH1DjGObXgaocPHAw-124">
          <mxGeometry x="45" y="65" width="10" height="50" as="geometry" />
        </mxCell>
        <mxCell id="kj9RH1DjGObXgaocPHAw-159" value="" style="html=1;points=[];perimeter=orthogonalPerimeter;outlineConnect=0;targetShapes=umlLifeline;portConstraint=eastwest;newEdgeStyle={&quot;edgeStyle&quot;:&quot;elbowEdgeStyle&quot;,&quot;elbow&quot;:&quot;vertical&quot;,&quot;curved&quot;:0,&quot;rounded&quot;:0};" vertex="1" parent="kj9RH1DjGObXgaocPHAw-124">
          <mxGeometry x="45" y="465" width="10" height="65" as="geometry" />
        </mxCell>
        <mxCell id="kj9RH1DjGObXgaocPHAw-160" value="redis trigger" style="html=1;align=left;spacingLeft=2;endArrow=block;rounded=0;edgeStyle=orthogonalEdgeStyle;curved=0;rounded=0;" edge="1" target="kj9RH1DjGObXgaocPHAw-159" parent="kj9RH1DjGObXgaocPHAw-124">
          <mxGeometry relative="1" as="geometry">
            <mxPoint x="55" y="445" as="sourcePoint" />
            <Array as="points">
              <mxPoint x="85" y="475" />
            </Array>
            <mxPoint as="offset" />
          </mxGeometry>
        </mxCell>
        <mxCell id="kj9RH1DjGObXgaocPHAw-125" value="Doris" style="shape=umlLifeline;perimeter=lifelinePerimeter;whiteSpace=wrap;html=1;container=1;dropTarget=0;collapsible=0;recursiveResize=0;outlineConnect=0;portConstraint=eastwest;newEdgeStyle={&quot;edgeStyle&quot;:&quot;elbowEdgeStyle&quot;,&quot;elbow&quot;:&quot;vertical&quot;,&quot;curved&quot;:0,&quot;rounded&quot;:0};" vertex="1" parent="WIyWlLk6GJQsqaUBKTNV-1">
          <mxGeometry x="1640" y="15" width="100" height="775" as="geometry" />
        </mxCell>
        <mxCell id="kj9RH1DjGObXgaocPHAw-130" value="" style="html=1;points=[];perimeter=orthogonalPerimeter;outlineConnect=0;targetShapes=umlLifeline;portConstraint=eastwest;newEdgeStyle={&quot;edgeStyle&quot;:&quot;elbowEdgeStyle&quot;,&quot;elbow&quot;:&quot;vertical&quot;,&quot;curved&quot;:0,&quot;rounded&quot;:0};" vertex="1" parent="kj9RH1DjGObXgaocPHAw-125">
          <mxGeometry x="45" y="165" width="10" height="65" as="geometry" />
        </mxCell>
        <mxCell id="kj9RH1DjGObXgaocPHAw-133" value="" style="html=1;points=[];perimeter=orthogonalPerimeter;outlineConnect=0;targetShapes=umlLifeline;portConstraint=eastwest;newEdgeStyle={&quot;edgeStyle&quot;:&quot;elbowEdgeStyle&quot;,&quot;elbow&quot;:&quot;vertical&quot;,&quot;curved&quot;:0,&quot;rounded&quot;:0};" vertex="1" parent="kj9RH1DjGObXgaocPHAw-125">
          <mxGeometry x="45" y="295" width="10" height="40" as="geometry" />
        </mxCell>
        <mxCell id="kj9RH1DjGObXgaocPHAw-134" value="borker:&amp;nbsp; finishe query &amp;amp; export excel" style="html=1;align=left;spacingLeft=2;endArrow=block;rounded=0;edgeStyle=orthogonalEdgeStyle;curved=0;rounded=0;" edge="1" target="kj9RH1DjGObXgaocPHAw-133" parent="kj9RH1DjGObXgaocPHAw-125">
          <mxGeometry x="0.8824" y="-10" relative="1" as="geometry">
            <mxPoint x="50" y="265" as="sourcePoint" />
            <Array as="points">
              <mxPoint x="80" y="295" />
            </Array>
            <mxPoint as="offset" />
          </mxGeometry>
        </mxCell>
        <mxCell id="kj9RH1DjGObXgaocPHAw-126" value="Minio" style="shape=umlLifeline;perimeter=lifelinePerimeter;whiteSpace=wrap;html=1;container=1;dropTarget=0;collapsible=0;recursiveResize=0;outlineConnect=0;portConstraint=eastwest;newEdgeStyle={&quot;edgeStyle&quot;:&quot;elbowEdgeStyle&quot;,&quot;elbow&quot;:&quot;vertical&quot;,&quot;curved&quot;:0,&quot;rounded&quot;:0};" vertex="1" parent="WIyWlLk6GJQsqaUBKTNV-1">
          <mxGeometry x="1820" y="15" width="110" height="775" as="geometry" />
        </mxCell>
        <mxCell id="kj9RH1DjGObXgaocPHAw-135" value="" style="html=1;points=[];perimeter=orthogonalPerimeter;outlineConnect=0;targetShapes=umlLifeline;portConstraint=eastwest;newEdgeStyle={&quot;edgeStyle&quot;:&quot;elbowEdgeStyle&quot;,&quot;elbow&quot;:&quot;vertical&quot;,&quot;curved&quot;:0,&quot;rounded&quot;:0};" vertex="1" parent="kj9RH1DjGObXgaocPHAw-126">
          <mxGeometry x="50" y="315" width="10" height="65" as="geometry" />
        </mxCell>
        <mxCell id="kj9RH1DjGObXgaocPHAw-142" value="" style="html=1;points=[];perimeter=orthogonalPerimeter;outlineConnect=0;targetShapes=umlLifeline;portConstraint=eastwest;newEdgeStyle={&quot;edgeStyle&quot;:&quot;elbowEdgeStyle&quot;,&quot;elbow&quot;:&quot;vertical&quot;,&quot;curved&quot;:0,&quot;rounded&quot;:0};" vertex="1" parent="kj9RH1DjGObXgaocPHAw-126">
          <mxGeometry x="50" y="415" width="10" height="40" as="geometry" />
        </mxCell>
        <mxCell id="kj9RH1DjGObXgaocPHAw-143" value="redis trigger" style="html=1;align=left;spacingLeft=2;endArrow=block;rounded=0;edgeStyle=orthogonalEdgeStyle;curved=0;rounded=0;" edge="1" target="kj9RH1DjGObXgaocPHAw-142" parent="kj9RH1DjGObXgaocPHAw-126">
          <mxGeometry x="0.0118" relative="1" as="geometry">
            <mxPoint x="50" y="395" as="sourcePoint" />
            <Array as="points">
              <mxPoint x="80" y="425" />
            </Array>
            <mxPoint as="offset" />
          </mxGeometry>
        </mxCell>
        <mxCell id="kj9RH1DjGObXgaocPHAw-128" style="edgeStyle=elbowEdgeStyle;rounded=0;orthogonalLoop=1;jettySize=auto;html=1;elbow=vertical;curved=0;" edge="1" parent="WIyWlLk6GJQsqaUBKTNV-1" source="kj9RH1DjGObXgaocPHAw-172" target="kj9RH1DjGObXgaocPHAw-127">
          <mxGeometry relative="1" as="geometry">
            <mxPoint x="1305" y="160" as="sourcePoint" />
            <Array as="points">
              <mxPoint x="1450" y="160" />
              <mxPoint x="1430" y="150" />
            </Array>
          </mxGeometry>
        </mxCell>
        <mxCell id="kj9RH1DjGObXgaocPHAw-129" value="发起查询任务" style="edgeLabel;html=1;align=center;verticalAlign=middle;resizable=0;points=[];" vertex="1" connectable="0" parent="kj9RH1DjGObXgaocPHAw-128">
          <mxGeometry x="-0.23" y="-4" relative="1" as="geometry">
            <mxPoint as="offset" />
          </mxGeometry>
        </mxCell>
        <mxCell id="kj9RH1DjGObXgaocPHAw-131" style="edgeStyle=elbowEdgeStyle;rounded=0;orthogonalLoop=1;jettySize=auto;html=1;elbow=vertical;curved=0;" edge="1" parent="WIyWlLk6GJQsqaUBKTNV-1" source="kj9RH1DjGObXgaocPHAw-127" target="kj9RH1DjGObXgaocPHAw-130">
          <mxGeometry relative="1" as="geometry">
            <Array as="points">
              <mxPoint x="1660" y="180" />
            </Array>
          </mxGeometry>
        </mxCell>
        <mxCell id="kj9RH1DjGObXgaocPHAw-132" value="调用执行" style="edgeLabel;html=1;align=center;verticalAlign=middle;resizable=0;points=[];" vertex="1" connectable="0" parent="kj9RH1DjGObXgaocPHAw-131">
          <mxGeometry x="-0.17" y="-3" relative="1" as="geometry">
            <mxPoint as="offset" />
          </mxGeometry>
        </mxCell>
        <mxCell id="kj9RH1DjGObXgaocPHAw-136" style="edgeStyle=elbowEdgeStyle;rounded=0;orthogonalLoop=1;jettySize=auto;html=1;elbow=vertical;curved=0;" edge="1" parent="WIyWlLk6GJQsqaUBKTNV-1" source="kj9RH1DjGObXgaocPHAw-133" target="kj9RH1DjGObXgaocPHAw-135">
          <mxGeometry relative="1" as="geometry" />
        </mxCell>
        <mxCell id="kj9RH1DjGObXgaocPHAw-137" value="save 2 minio" style="edgeLabel;html=1;align=center;verticalAlign=middle;resizable=0;points=[];" vertex="1" connectable="0" parent="kj9RH1DjGObXgaocPHAw-136">
          <mxGeometry x="-0.1895" y="-2" relative="1" as="geometry">
            <mxPoint x="18" as="offset" />
          </mxGeometry>
        </mxCell>
        <mxCell id="kj9RH1DjGObXgaocPHAw-138" style="edgeStyle=elbowEdgeStyle;rounded=0;orthogonalLoop=1;jettySize=auto;html=1;elbow=vertical;curved=0;dashed=1;" edge="1" parent="WIyWlLk6GJQsqaUBKTNV-1" source="kj9RH1DjGObXgaocPHAw-130" target="kj9RH1DjGObXgaocPHAw-127">
          <mxGeometry relative="1" as="geometry">
            <mxPoint x="1520" y="230" as="targetPoint" />
            <Array as="points">
              <mxPoint x="1610" y="230" />
            </Array>
          </mxGeometry>
        </mxCell>
        <mxCell id="kj9RH1DjGObXgaocPHAw-139" value="执行中" style="edgeLabel;html=1;align=center;verticalAlign=middle;resizable=0;points=[];" vertex="1" connectable="0" parent="kj9RH1DjGObXgaocPHAw-138">
          <mxGeometry x="0.15" y="-3" relative="1" as="geometry">
            <mxPoint as="offset" />
          </mxGeometry>
        </mxCell>
        <mxCell id="kj9RH1DjGObXgaocPHAw-140" style="edgeStyle=elbowEdgeStyle;rounded=0;orthogonalLoop=1;jettySize=auto;html=1;elbow=vertical;curved=0;dashed=1;" edge="1" parent="WIyWlLk6GJQsqaUBKTNV-1" source="kj9RH1DjGObXgaocPHAw-127">
          <mxGeometry relative="1" as="geometry">
            <mxPoint x="1305" y="230" as="targetPoint" />
            <Array as="points">
              <mxPoint x="1430" y="230" />
            </Array>
          </mxGeometry>
        </mxCell>
        <mxCell id="kj9RH1DjGObXgaocPHAw-141" value="执行中" style="edgeLabel;html=1;align=center;verticalAlign=middle;resizable=0;points=[];" vertex="1" connectable="0" parent="kj9RH1DjGObXgaocPHAw-140">
          <mxGeometry x="-0.08" y="3" relative="1" as="geometry">
            <mxPoint as="offset" />
          </mxGeometry>
        </mxCell>
        <mxCell id="kj9RH1DjGObXgaocPHAw-144" value="redis" style="shape=umlLifeline;perimeter=lifelinePerimeter;whiteSpace=wrap;html=1;container=1;dropTarget=0;collapsible=0;recursiveResize=0;outlineConnect=0;portConstraint=eastwest;newEdgeStyle={&quot;edgeStyle&quot;:&quot;elbowEdgeStyle&quot;,&quot;elbow&quot;:&quot;vertical&quot;,&quot;curved&quot;:0,&quot;rounded&quot;:0};" vertex="1" parent="WIyWlLk6GJQsqaUBKTNV-1">
          <mxGeometry x="2000" y="15" width="100" height="785" as="geometry" />
        </mxCell>
        <mxCell id="kj9RH1DjGObXgaocPHAw-153" value="" style="html=1;points=[];perimeter=orthogonalPerimeter;outlineConnect=0;targetShapes=umlLifeline;portConstraint=eastwest;newEdgeStyle={&quot;edgeStyle&quot;:&quot;elbowEdgeStyle&quot;,&quot;elbow&quot;:&quot;vertical&quot;,&quot;curved&quot;:0,&quot;rounded&quot;:0};" vertex="1" parent="kj9RH1DjGObXgaocPHAw-144">
          <mxGeometry x="45" y="50" width="10" height="520" as="geometry" />
        </mxCell>
        <mxCell id="kj9RH1DjGObXgaocPHAw-148" style="edgeStyle=elbowEdgeStyle;rounded=0;orthogonalLoop=1;jettySize=auto;html=1;elbow=vertical;curved=0;entryX=0.5;entryY=0.25;entryDx=0;entryDy=0;entryPerimeter=0;" edge="1" parent="WIyWlLk6GJQsqaUBKTNV-1" source="kj9RH1DjGObXgaocPHAw-142">
          <mxGeometry relative="1" as="geometry">
            <mxPoint x="2050" y="470" as="targetPoint" />
            <Array as="points">
              <mxPoint x="1910" y="470" />
            </Array>
          </mxGeometry>
        </mxCell>
        <mxCell id="kj9RH1DjGObXgaocPHAw-149" value="push message" style="edgeLabel;html=1;align=center;verticalAlign=middle;resizable=0;points=[];" vertex="1" connectable="0" parent="kj9RH1DjGObXgaocPHAw-148">
          <mxGeometry x="0.0545" y="1" relative="1" as="geometry">
            <mxPoint as="offset" />
          </mxGeometry>
        </mxCell>
        <mxCell id="kj9RH1DjGObXgaocPHAw-156" style="edgeStyle=elbowEdgeStyle;rounded=0;orthogonalLoop=1;jettySize=auto;html=1;elbow=vertical;curved=0;" edge="1" parent="WIyWlLk6GJQsqaUBKTNV-1" source="kj9RH1DjGObXgaocPHAw-155" target="kj9RH1DjGObXgaocPHAw-153">
          <mxGeometry relative="1" as="geometry">
            <Array as="points">
              <mxPoint x="1670" y="80" />
            </Array>
          </mxGeometry>
        </mxCell>
        <mxCell id="kj9RH1DjGObXgaocPHAw-158" value="listen" style="edgeLabel;html=1;align=center;verticalAlign=middle;resizable=0;points=[];" vertex="1" connectable="0" parent="kj9RH1DjGObXgaocPHAw-156">
          <mxGeometry x="0.1019" y="-1" relative="1" as="geometry">
            <mxPoint as="offset" />
          </mxGeometry>
        </mxCell>
        <mxCell id="kj9RH1DjGObXgaocPHAw-161" style="edgeStyle=elbowEdgeStyle;rounded=0;orthogonalLoop=1;jettySize=auto;html=1;elbow=vertical;curved=0;dashed=1;" edge="1" parent="WIyWlLk6GJQsqaUBKTNV-1" source="kj9RH1DjGObXgaocPHAw-153" target="kj9RH1DjGObXgaocPHAw-159">
          <mxGeometry relative="1" as="geometry">
            <Array as="points">
              <mxPoint x="2020" y="530" />
            </Array>
          </mxGeometry>
        </mxCell>
        <mxCell id="kj9RH1DjGObXgaocPHAw-164" value="message&amp;nbsp;" style="edgeLabel;html=1;align=center;verticalAlign=middle;resizable=0;points=[];" vertex="1" connectable="0" parent="kj9RH1DjGObXgaocPHAw-161">
          <mxGeometry x="-0.1358" y="-1" relative="1" as="geometry">
            <mxPoint as="offset" />
          </mxGeometry>
        </mxCell>
        <mxCell id="kj9RH1DjGObXgaocPHAw-171" value="OTB" style="shape=umlLifeline;perimeter=lifelinePerimeter;whiteSpace=wrap;html=1;container=1;dropTarget=0;collapsible=0;recursiveResize=0;outlineConnect=0;portConstraint=eastwest;newEdgeStyle={&quot;edgeStyle&quot;:&quot;elbowEdgeStyle&quot;,&quot;elbow&quot;:&quot;vertical&quot;,&quot;curved&quot;:0,&quot;rounded&quot;:0};" vertex="1" parent="WIyWlLk6GJQsqaUBKTNV-1">
          <mxGeometry x="1260" y="20" width="100" height="790" as="geometry" />
        </mxCell>
        <mxCell id="kj9RH1DjGObXgaocPHAw-172" value="" style="html=1;points=[];perimeter=orthogonalPerimeter;outlineConnect=0;targetShapes=umlLifeline;portConstraint=eastwest;newEdgeStyle={&quot;edgeStyle&quot;:&quot;elbowEdgeStyle&quot;,&quot;elbow&quot;:&quot;vertical&quot;,&quot;curved&quot;:0,&quot;rounded&quot;:0};" vertex="1" parent="kj9RH1DjGObXgaocPHAw-171">
          <mxGeometry x="45" y="140" width="10" height="75" as="geometry" />
        </mxCell>
        <mxCell id="kj9RH1DjGObXgaocPHAw-178" value="" style="html=1;points=[];perimeter=orthogonalPerimeter;outlineConnect=0;targetShapes=umlLifeline;portConstraint=eastwest;newEdgeStyle={&quot;edgeStyle&quot;:&quot;elbowEdgeStyle&quot;,&quot;elbow&quot;:&quot;vertical&quot;,&quot;curved&quot;:0,&quot;rounded&quot;:0};" vertex="1" parent="kj9RH1DjGObXgaocPHAw-171">
          <mxGeometry x="45" y="520" width="10" height="65" as="geometry" />
        </mxCell>
        <mxCell id="kj9RH1DjGObXgaocPHAw-182" value="" style="html=1;points=[];perimeter=orthogonalPerimeter;outlineConnect=0;targetShapes=umlLifeline;portConstraint=eastwest;newEdgeStyle={&quot;edgeStyle&quot;:&quot;elbowEdgeStyle&quot;,&quot;elbow&quot;:&quot;vertical&quot;,&quot;curved&quot;:0,&quot;rounded&quot;:0};" vertex="1" parent="kj9RH1DjGObXgaocPHAw-171">
          <mxGeometry x="45" y="670" width="10" height="70" as="geometry" />
        </mxCell>
        <mxCell id="kj9RH1DjGObXgaocPHAw-183" value="get&amp;nbsp; minio file &amp;amp; save 2 otb database" style="html=1;align=left;spacingLeft=2;endArrow=block;rounded=0;edgeStyle=orthogonalEdgeStyle;curved=0;rounded=0;" edge="1" target="kj9RH1DjGObXgaocPHAw-182" parent="kj9RH1DjGObXgaocPHAw-171">
          <mxGeometry relative="1" as="geometry">
            <mxPoint x="50" y="650" as="sourcePoint" />
            <Array as="points">
              <mxPoint x="80" y="680" />
            </Array>
          </mxGeometry>
        </mxCell>
        <mxCell id="kj9RH1DjGObXgaocPHAw-174" style="edgeStyle=orthogonalEdgeStyle;rounded=0;orthogonalLoop=1;jettySize=auto;html=1;" edge="1" parent="WIyWlLk6GJQsqaUBKTNV-1" source="kj9RH1DjGObXgaocPHAw-173" target="kj9RH1DjGObXgaocPHAw-172">
          <mxGeometry relative="1" as="geometry">
            <Array as="points">
              <mxPoint x="1200" y="160" />
              <mxPoint x="1200" y="160" />
            </Array>
          </mxGeometry>
        </mxCell>
        <mxCell id="kj9RH1DjGObXgaocPHAw-173" value="Actor" style="shape=umlActor;verticalLabelPosition=bottom;verticalAlign=top;html=1;" vertex="1" parent="WIyWlLk6GJQsqaUBKTNV-1">
          <mxGeometry x="1120" y="130" width="30" height="60" as="geometry" />
        </mxCell>
        <mxCell id="kj9RH1DjGObXgaocPHAw-180" style="edgeStyle=elbowEdgeStyle;rounded=0;orthogonalLoop=1;jettySize=auto;html=1;elbow=vertical;curved=0;" edge="1" parent="WIyWlLk6GJQsqaUBKTNV-1" source="kj9RH1DjGObXgaocPHAw-159" target="kj9RH1DjGObXgaocPHAw-178">
          <mxGeometry relative="1" as="geometry">
            <Array as="points">
              <mxPoint x="1480" y="540" />
            </Array>
          </mxGeometry>
        </mxCell>
        <mxCell id="kj9RH1DjGObXgaocPHAw-181" value="down minio ur(export data)l" style="edgeLabel;html=1;align=center;verticalAlign=middle;resizable=0;points=[];" vertex="1" connectable="0" parent="kj9RH1DjGObXgaocPHAw-180">
          <mxGeometry x="0.3" relative="1" as="geometry">
            <mxPoint x="45" y="-3" as="offset" />
          </mxGeometry>
        </mxCell>
      </root>
    </mxGraphModel>
  </diagram>
</mxfile>
